<?xml version="1.0" encoding="UTF-8" standalone="no"?>
<svg width="339px" height="103px" viewBox="0 0 339 103" version="1.1" xmlns="http://www.w3.org/2000/svg" xmlns:xlink="http://www.w3.org/1999/xlink">
    <!-- Generator: Sketch 49.3 (51167) - http://www.bohemiancoding.com/sketch -->
    <title>Artboard 2 Copy 3</title>
    <desc>Created with Sketch.</desc>
    <defs></defs>
    <g id="Artboard-2-Copy-3" stroke="none" stroke-width="1" fill="none" fill-rule="evenodd">
        <path d="M102.259766,82.8066406 C100.281891,82.8066406 98.5058672,82.2919973 96.9316406,81.2626953 C95.357414,80.2333933 94.0253961,78.830738 92.9355469,77.0546875 C91.8456977,75.278637 91.0485051,73.2200638 90.5439453,70.8789062 C90.0393855,68.5377487 89.8476556,66.0553517 89.96875,63.4316406 C90.1302091,60.6464704 90.554033,57.7705226 91.2402344,54.8037109 C91.9264357,51.8368992 92.8548119,48.9407693 94.0253906,46.1152344 C95.1959694,43.2896994 96.5582605,40.6054815 98.1123047,38.0625 C99.6663489,35.5195185 101.381827,33.2994887 103.258789,31.4023438 C105.135752,29.5051988 107.14387,28.0016332 109.283203,26.8916016 C111.422537,25.78157 113.662749,25.2265625 116.003906,25.2265625 C117.537768,25.2265625 118.829422,25.6100222 119.878906,26.3769531 C120.928391,27.143884 121.745765,28.1428975 122.331055,29.3740234 C122.916344,30.6051494 123.289713,31.9876225 123.451172,33.5214844 C123.612631,35.0553462 123.60254,36.579094 123.420898,38.0927734 C123.239257,39.6064529 122.896161,41.0595633 122.391602,42.4521484 C121.887042,43.8447335 121.271488,44.9850216 120.544922,45.8730469 C119.616532,47.0436256 118.778975,47.6591794 118.032227,47.7197266 C117.285478,47.7802737 116.569014,47.5683618 115.882812,47.0839844 C115.600259,46.8417957 115.31771,46.5592464 115.035156,46.2363281 C114.752603,45.9537746 114.449871,45.6005881 114.126953,45.1767578 C113.804035,44.7529276 113.460939,44.2181022 113.097656,43.5722656 C113.864587,43.2897121 114.57096,42.815433 115.216797,42.1494141 C115.862633,41.4833951 116.417641,40.7265667 116.881836,39.8789062 C117.346031,39.0312458 117.709309,38.1331428 117.97168,37.1845703 C118.234051,36.2359979 118.385416,35.2975307 118.425781,34.3691406 C118.466146,33.6425745 118.445964,32.9261103 118.365234,32.2197266 C118.284505,31.5133428 118.123048,30.887698 117.880859,30.3427734 C117.638671,29.7978488 117.305666,29.3538429 116.881836,29.0107422 C116.458006,28.6676415 115.92318,28.4960938 115.277344,28.4960938 C113.662752,28.4960938 112.088549,29.1116475 110.554688,30.3427734 C109.020826,31.5738994 107.577806,33.2086487 106.225586,35.2470703 C104.873366,37.285492 103.622076,39.6165233 102.47168,42.2402344 C101.321283,44.8639454 100.32227,47.5683454 99.4746094,50.3535156 C98.6269489,53.1386858 97.9407578,55.88345 97.4160156,58.5878906 C96.8912734,61.2923312 96.56836,63.7545462 96.4472656,65.9746094 C96.2858065,68.7597796 96.3867169,71.0201736 96.75,72.7558594 C97.1132831,74.4915451 97.6077443,75.8538362 98.2333984,76.8427734 C98.8590526,77.8317107 99.5351526,78.4977196 100.261719,78.8408203 C100.988285,79.183921 101.654294,79.3554688 102.259766,79.3554688 C103.38998,79.3554688 104.661451,78.8307344 106.074219,77.78125 C107.486986,76.7317656 108.839186,75.3089283 110.130859,73.5126953 C111.422533,71.7164624 112.583003,69.6477982 113.612305,67.3066406 C114.641607,64.9654831 115.378253,62.5032681 115.822266,59.9199219 C114.813146,59.9199219 113.79395,59.9300129 112.764648,59.9501953 C111.735346,59.9703777 110.756515,60.0006508 109.828125,60.0410156 C108.899735,60.0813804 108.072269,60.1318356 107.345703,60.1923828 C106.619137,60.25293 106.054038,60.3235673 105.650391,60.4042969 C105.367837,60.2832025 105.176107,60.1419279 105.075195,59.9804688 C104.974283,59.8190096 104.883464,59.6373708 104.802734,59.4355469 C104.722005,59.2740877 104.681641,59.0722668 104.681641,58.8300781 C104.681641,58.5878894 104.722005,58.3658864 104.802734,58.1640625 C104.883464,57.9622386 104.984374,57.7503266 105.105469,57.5283203 C105.226563,57.306314 105.38802,57.07422 105.589844,56.8320312 C106.881517,56.5898425 108.152989,56.3880216 109.404297,56.2265625 C110.655605,56.0651034 111.95735,55.9339198 113.30957,55.8330078 C114.661791,55.7320958 116.114901,55.6513675 117.668945,55.5908203 C119.22299,55.5302731 120.96874,55.4798179 122.90625,55.4394531 C123.713546,55.3990883 124.208007,55.4999988 124.389648,55.7421875 C124.57129,55.9843762 124.500653,56.5898389 124.177734,57.5585938 C123.935546,58.3255247 123.622723,58.9511695 123.239258,59.4355469 C122.855792,59.9199243 122.220057,60.1217452 121.332031,60.0410156 C121.049478,60.0410156 120.827475,60.0208335 120.666016,59.9804688 C120.302733,62.3619911 119.535813,64.8847523 118.365234,67.5488281 C117.194656,70.2129039 115.761727,72.6751189 114.066406,74.9355469 C112.371085,77.1959748 110.504242,79.0729092 108.46582,80.5664062 C106.427399,82.0599033 104.358734,82.8066406 102.259766,82.8066406 Z M124.662109,70.6972656 C124.379556,71.1412783 124.066733,71.4339186 123.723633,71.5751953 C123.380532,71.7164721 123.077801,71.7366542 122.81543,71.6357422 C122.553059,71.5348302 122.381511,71.3229183 122.300781,71 C122.220052,70.6770817 122.30078,70.2734399 122.542969,69.7890625 L123.360352,68.1542969 C123.784182,67.3066364 124.288734,66.2874408 124.874023,65.0966797 C125.459313,63.9059185 126.095049,62.6142648 126.78125,61.2216797 C127.467451,59.8290946 128.123369,58.5071677 128.749023,57.2558594 C129.374678,56.004551 129.949867,54.884445 130.474609,53.8955078 C130.999352,52.9065706 131.382811,52.1901064 131.625,51.7460938 C131.180987,51.3424459 130.878256,51.0498056 130.716797,50.8681641 C130.555338,50.6865225 130.434245,50.2929718 130.353516,49.6875 C130.272786,49.1627578 130.393879,48.4765667 130.716797,47.6289062 C131.039715,46.7812458 131.463539,45.9638711 131.988281,45.1767578 C132.513023,44.3896445 133.098304,43.7135445 133.744141,43.1484375 C134.389977,42.5833305 135.015622,42.3007812 135.621094,42.3007812 C136.751308,42.3007812 137.5485,42.6640589 138.012695,43.390625 C138.47689,44.1171911 138.749349,44.8639285 138.830078,45.6308594 C138.910808,46.1556016 138.870444,46.8216105 138.708984,47.6289062 C138.547525,48.436202 138.244794,49.1627572 137.800781,49.8085938 C137.921876,49.8893233 138.083332,49.9801427 138.285156,50.0810547 C138.48698,50.1819667 138.809894,50.2324219 139.253906,50.2324219 C139.899743,50.2324219 140.35384,50.1920577 140.616211,50.1113281 C140.878582,50.0305986 141.292315,49.9902344 141.857422,49.9902344 C142.543623,49.9902344 143.108722,50.1617821 143.552734,50.5048828 C143.996747,50.8479835 144.360025,51.2718074 144.642578,51.7763672 C144.925132,52.280927 145.137044,52.8258434 145.27832,53.4111328 C145.419597,53.9964222 145.510416,54.5312476 145.550781,55.015625 C145.671876,56.0247446 145.409508,57.0742133 144.763672,58.1640625 C144.117835,59.2539117 143.330734,60.444655 142.402344,61.7363281 C141.837237,62.5436238 141.272138,63.4518179 140.707031,64.4609375 C140.141924,65.4700571 139.899739,66.3782512 139.980469,67.1855469 C140.061198,67.7102891 140.202473,68.134113 140.404297,68.4570312 C140.606121,68.7799495 141.171219,68.9414062 142.099609,68.9414062 C142.785811,68.9414062 143.542639,68.6891301 144.370117,68.1845703 C145.197595,67.6800105 146.045243,67.0341836 146.913086,66.2470703 C147.780929,65.459957 148.638668,64.5921271 149.486328,63.6435547 C150.333989,62.6949822 151.12109,61.7666061 151.847656,60.8583984 C152.574222,59.9501908 153.189776,59.1328161 153.694336,58.40625 C154.198896,57.6796839 154.572264,57.1549495 154.814453,56.8320312 C155.016277,56.509113 155.278644,56.28711 155.601562,56.1660156 C155.924481,56.0449213 156.20703,56.0449213 156.449219,56.1660156 C156.691407,56.28711 156.842773,56.5292951 156.90332,56.8925781 C156.963867,57.2558612 156.812502,57.7402313 156.449219,58.3457031 C156.20703,58.749351 155.793297,59.3951779 155.208008,60.2832031 C154.622718,61.1712284 153.916345,62.1601508 153.088867,63.25 C152.261389,64.3398492 151.343104,65.4599552 150.333984,66.6103516 C149.324865,67.7607479 148.265305,68.8102166 147.155273,69.7587891 C146.045242,70.7073615 144.935227,71.484372 143.825195,72.0898438 C142.715164,72.6953155 141.655604,72.9980469 140.646484,72.9980469 C139.597,72.9980469 138.72917,72.796226 138.042969,72.3925781 C137.356767,71.9889303 136.80176,71.4944691 136.37793,70.9091797 C135.954099,70.3238903 135.651368,69.6780634 135.469727,68.9716797 C135.288085,68.2652959 135.217448,67.609378 135.257812,67.0039062 C135.298177,66.5195288 135.429361,66.0048855 135.651367,65.4599609 C135.873374,64.9150363 136.135741,64.3499378 136.438477,63.7646484 C136.741212,63.1793591 137.064126,62.5940784 137.407227,62.0087891 C137.750327,61.4234997 138.06315,60.8483101 138.345703,60.2832031 C139.031904,59.1126244 139.586912,58.1136109 140.010742,57.2861328 C140.434572,56.4586547 140.646484,55.7623726 140.646484,55.1972656 C140.646484,54.8339826 140.565756,54.5110691 140.404297,54.2285156 C140.242838,53.9459621 139.980471,53.8046875 139.617188,53.8046875 C139.374999,53.8046875 139.203451,53.8147785 139.102539,53.8349609 C139.001627,53.8551433 138.900717,53.8652344 138.799805,53.8652344 C138.698893,53.8652344 138.557618,53.8753254 138.375977,53.8955078 C138.194335,53.9156902 137.921877,53.9257812 137.558594,53.9257812 C137.033852,53.9257812 136.589846,53.8450529 136.226562,53.6835938 C135.863279,53.5221346 135.520184,53.4010421 135.197266,53.3203125 C135.035806,53.602866 134.672529,54.2083287 134.107422,55.1367188 C133.542315,56.0651088 132.886397,57.1549417 132.139648,58.40625 C131.3929,59.6575583 130.605798,60.9693942 129.77832,62.3417969 C128.950842,63.7141996 128.173832,64.9957623 127.447266,66.1865234 C126.720699,67.3772846 126.105146,68.3863891 125.600586,69.2138672 C125.096026,70.0413453 124.783204,70.5358065 124.662109,70.6972656 Z M179.578125,58.40625 C178.367181,60.1823005 176.994799,61.9078692 175.460938,63.5830078 C173.927076,65.2581464 172.302417,66.751621 170.586914,68.0634766 C168.871411,69.3753321 167.115569,70.4348918 165.319336,71.2421875 C163.523103,72.0494832 161.777352,72.453125 160.082031,72.453125 C159.194006,72.453125 158.235357,72.2412131 157.206055,71.8173828 C156.176753,71.3935526 155.238285,70.7376346 154.390625,69.8496094 C153.542965,68.9615841 152.866865,67.811205 152.362305,66.3984375 C151.857745,64.98567 151.706379,63.2701924 151.908203,61.2519531 C152.069662,59.5969969 152.584306,57.8512462 153.452148,56.0146484 C154.319991,54.1780507 155.389642,52.4928462 156.661133,50.9589844 C157.932624,49.4251225 159.365552,48.1536509 160.959961,47.1445312 C162.55437,46.1354116 164.158846,45.6308594 165.773438,45.6308594 C167.307299,45.6308594 168.417314,46.0143191 169.103516,46.78125 C169.789717,47.5481809 170.092448,48.4967391 170.011719,49.6269531 C169.890624,50.8782615 169.537438,52.0286406 168.952148,53.078125 C168.366859,54.1276094 167.670577,55.0761676 166.863281,55.9238281 C166.055986,56.7714886 165.198247,57.538408 164.290039,58.2246094 C163.381831,58.9108107 162.524093,59.5364555 161.716797,60.1015625 C160.828772,60.7070343 159.981124,61.2822238 159.173828,61.8271484 C158.366532,62.372073 157.660159,62.8665342 157.054688,63.3105469 C157.095052,64.3196665 157.276691,65.1673143 157.599609,65.8535156 C157.922528,66.539717 158.326169,67.0947244 158.810547,67.5185547 C159.294924,67.9423849 159.849932,68.2451163 160.475586,68.4267578 C161.10124,68.6083993 161.736976,68.6992188 162.382812,68.6992188 C163.755215,68.6992188 165.188144,68.2653038 166.681641,67.3974609 C168.175138,66.5296181 169.638339,65.4801494 171.071289,64.2490234 C172.504239,63.0178975 173.836257,61.7363348 175.067383,60.4042969 C176.298509,59.072259 177.317704,57.9218798 178.125,56.953125 C178.407553,56.6302067 178.700194,56.4384769 179.00293,56.3779297 C179.305666,56.3173825 179.547851,56.3577467 179.729492,56.4990234 C179.911134,56.6403002 180.001953,56.8824853 180.001953,57.2255859 C180.001953,57.5686866 179.860678,57.9622374 179.578125,58.40625 Z M164.078125,49.0820312 C163.593748,49.0820312 163.018558,49.3242163 162.352539,49.8085938 C161.68652,50.2929712 161.030602,50.9892533 160.384766,51.8974609 C159.738929,52.8056686 159.133466,53.9156835 158.568359,55.2275391 C158.003252,56.5393946 157.579428,58.0429603 157.296875,59.7382812 C157.781252,59.3749982 158.305987,59.0016295 158.871094,58.6181641 C159.436201,58.2346986 160.001299,57.8209658 160.566406,57.3769531 C162.302092,56.0449152 163.513017,54.874354 164.199219,53.8652344 C164.88542,52.8561147 165.26888,51.9882849 165.349609,51.2617188 C165.430339,50.4947878 165.349611,49.9397804 165.107422,49.5966797 C164.865233,49.253579 164.522138,49.0820312 164.078125,49.0820312 Z M206.279297,58.9511719 C205.71419,59.7584676 204.987635,60.757481 204.099609,61.9482422 C203.211584,63.1390033 202.293299,64.3297467 201.344727,65.5205078 C200.396154,66.711269 199.467778,67.8011018 198.55957,68.7900391 C197.651363,69.7789763 196.894534,70.4752584 196.289062,70.8789062 C195.885415,71.121095 195.421227,71.3229159 194.896484,71.484375 C194.371742,71.6458341 193.836917,71.7467446 193.291992,71.7871094 C192.747068,71.8274742 192.232424,71.797201 191.748047,71.6962891 C191.263669,71.5953771 190.839846,71.4238293 190.476562,71.1816406 C190.113279,70.8990871 189.810548,70.4954453 189.568359,69.9707031 C189.366535,69.5266905 189.174806,68.9414099 188.993164,68.2148438 C188.811523,67.4882776 188.740885,66.5800836 188.78125,65.4902344 C187.812495,67.1048258 186.742844,68.3460243 185.572266,69.2138672 C184.401687,70.0817101 183.291672,70.7174459 182.242188,71.1210938 C181.031244,71.5651064 179.820319,71.8274736 178.609375,71.9082031 C178.044268,71.9082031 177.438805,71.7164733 176.792969,71.3330078 C176.147132,70.9495424 175.602216,70.3440797 175.158203,69.5166016 C174.71419,68.6891235 174.431641,67.6194727 174.310547,66.3076172 C174.189453,64.9957617 174.350909,63.4316497 174.794922,61.6152344 C175.360029,59.1529825 176.258132,56.9127705 177.489258,54.8945312 C178.720384,52.876292 180.062493,51.1507233 181.515625,49.7177734 C182.968757,48.2848236 184.401686,47.2050818 185.814453,46.4785156 C187.227221,45.7519495 188.397782,45.4290361 189.326172,45.5097656 C190.416021,45.7115896 191.304033,46.034503 191.990234,46.4785156 C192.555341,46.8821635 192.92871,47.4775351 193.110352,48.2646484 C193.291993,49.0517617 192.958989,50.0911394 192.111328,51.3828125 C192.676435,51.2617181 193.150714,51.1809898 193.53418,51.140625 C193.917645,51.1002602 194.210285,51.0800781 194.412109,51.0800781 C194.654298,51.0800781 194.815755,51.1002602 194.896484,51.140625 C194.936849,51.2213546 194.957031,51.3929023 194.957031,51.6552734 C194.957031,51.9176445 194.896485,52.3919237 194.775391,53.078125 C194.654296,53.7643263 194.472657,54.6927025 194.230469,55.8632812 C193.98828,57.03386 193.665367,58.5475168 193.261719,60.4042969 C193.180989,60.7675799 193.110352,61.1005844 193.049805,61.4033203 L192.353516,64.8847656 C192.313151,65.2480487 192.30306,65.6415994 192.323242,66.0654297 C192.343425,66.4892599 192.414062,66.8828107 192.535156,67.2460938 C192.656251,67.6093768 192.84798,67.9020171 193.110352,68.1240234 C193.372723,68.3460298 193.746091,68.4570312 194.230469,68.4570312 C194.634117,68.4570312 195.158851,68.2047551 195.804688,67.7001953 C196.450524,67.1956355 197.136715,66.5498086 197.863281,65.7626953 C198.589847,64.975582 199.346676,64.1077521 200.133789,63.1591797 C200.920902,62.2106072 201.657549,61.2923221 202.34375,60.4042969 C203.029951,59.5162716 203.645505,58.7291701 204.19043,58.0429688 C204.735354,57.3567674 205.128905,56.8522152 205.371094,56.5292969 C205.694012,56.1660138 206.016925,55.9541019 206.339844,55.8935547 C206.662762,55.8330075 206.904947,55.9238269 207.066406,56.1660156 C207.227865,56.4082043 207.258139,56.771482 207.157227,57.2558594 C207.056315,57.7402368 206.763674,58.3053353 206.279297,58.9511719 Z M188.539062,61.6152344 C188.740886,60.8079387 188.983072,59.8593804 189.265625,58.7695312 C189.548178,57.6796821 189.790364,56.6302134 189.992188,55.6210938 C190.194011,54.6119741 190.345377,53.7744174 190.446289,53.1083984 C190.547201,52.4423795 190.516928,52.1295571 190.355469,52.1699219 C190.153645,52.2102867 189.931642,52.2708329 189.689453,52.3515625 C189.487629,52.4322921 189.225262,52.4928383 188.902344,52.5332031 C188.579425,52.5735679 188.256512,52.6341142 187.933594,52.7148438 C188.256512,52.0690072 188.448242,51.5341818 188.508789,51.1103516 C188.569336,50.6865213 188.579427,50.3535168 188.539062,50.1113281 C188.498698,49.8287746 188.417969,49.6067716 188.296875,49.4453125 C187.852862,49.0820294 187.075852,49.3746697 185.96582,50.3232422 C184.855789,51.2718146 183.574226,53.0175654 182.121094,55.5605469 C181.515622,56.6100313 181.031252,57.7301373 180.667969,58.9208984 C180.304686,60.1116596 180.05241,61.2317656 179.911133,62.28125 C179.769856,63.3307344 179.739583,64.2490195 179.820312,65.0361328 C179.901042,65.8232461 180.062499,66.3378894 180.304688,66.5800781 C180.7487,67.0240908 181.253252,67.2360027 181.818359,67.2158203 C182.383466,67.1956379 182.958656,67.0341812 183.543945,66.7314453 C184.129235,66.4287094 184.714515,66.0351587 185.299805,65.5507812 C185.885094,65.0664038 186.409828,64.5618516 186.874023,64.0371094 C187.338218,63.5123672 187.721678,63.027997 188.024414,62.5839844 C188.32715,62.1399717 188.498698,61.8170583 188.539062,61.6152344 Z M224.564453,55.6816406 C224.725912,55.4394519 224.937824,55.2880862 225.200195,55.2275391 C225.462566,55.1669919 225.674478,55.197265 225.835938,55.3183594 C225.997397,55.4394537 226.088216,55.6412746 226.108398,55.9238281 C226.128581,56.2063816 226.017579,56.5898413 225.775391,57.0742188 C224.968095,58.6080806 223.908535,60.263012 222.59668,62.0390625 C221.284824,63.815113 219.902351,65.4801355 218.449219,67.0341797 C216.996086,68.5882239 215.58334,69.8697866 214.210938,70.8789062 C212.838535,71.8880259 211.688156,72.3925781 210.759766,72.3925781 C209.427728,72.3925781 208.317713,72.130211 207.429688,71.6054688 C206.541662,71.0807265 205.84538,70.4348997 205.34082,69.6679688 C204.83626,68.9010378 204.483074,68.0634811 204.28125,67.1552734 C204.079426,66.2470658 204.01888,65.409509 204.099609,64.6425781 C204.139974,63.9967416 204.281249,62.8362714 204.523438,61.1611328 C204.765626,59.4859942 205.08854,57.5485136 205.492188,55.3486328 C205.895835,53.148752 206.349932,50.7874475 206.854492,48.2646484 C207.359052,45.7418494 207.893877,43.3099075 208.458984,40.96875 L206.400391,41.2109375 C205.714189,41.2916671 205.088544,41.3320312 204.523438,41.3320312 C203.231764,41.3320312 202.010748,41.1806656 200.860352,40.8779297 C199.709955,40.5751938 198.852216,40.2825535 198.287109,40 C197.964191,39.8385409 197.822916,39.6064468 197.863281,39.3037109 C197.903646,39.000975 198.024739,38.6982437 198.226562,38.3955078 C198.428386,38.0927719 198.680663,37.8304048 198.983398,37.6083984 C199.286134,37.3863921 199.558593,37.2753906 199.800781,37.2753906 C200.567712,37.3561202 201.395178,37.4267575 202.283203,37.4873047 C203.171228,37.5478519 204.139969,37.5579429 205.189453,37.5175781 C205.956384,37.4772133 206.69303,37.4166671 207.399414,37.3359375 C208.105798,37.2552079 208.80208,37.1542975 209.488281,37.0332031 C210.013023,35.0956934 210.527667,33.4104889 211.032227,31.9775391 C211.536786,30.5445892 211.990883,29.5455757 212.394531,28.9804688 C212.515626,28.7786448 212.788084,28.6070971 213.211914,28.4658203 C213.635744,28.3245436 214.089841,28.2236331 214.574219,28.1630859 C215.058596,28.1025388 215.522784,28.1025388 215.966797,28.1630859 C216.41081,28.2236331 216.733723,28.3749988 216.935547,28.6171875 C217.137371,28.9401058 217.218099,29.7675715 217.177734,31.0996094 C217.13737,32.4316473 216.915367,34.1269428 216.511719,36.1855469 C218.20704,36.1855469 219.710605,36.2763663 221.022461,36.4580078 C222.334316,36.6396493 223.454422,36.8414702 224.382812,37.0634766 C225.311203,37.2854829 226.05794,37.5074859 226.623047,37.7294922 C227.188154,37.9514985 227.611978,38.1028642 227.894531,38.1835938 C228.177085,38.2643233 228.32845,38.4661442 228.348633,38.7890625 C228.368815,39.1119808 228.308269,39.4449853 228.166992,39.7880859 C228.025715,40.1311866 227.793621,40.4238269 227.470703,40.6660156 C227.147785,40.9082043 226.784507,40.9889327 226.380859,40.9082031 C225.977212,40.8678383 225.523115,40.78711 225.018555,40.6660156 C224.513995,40.5449213 223.908532,40.4440108 223.202148,40.3632812 C222.495765,40.2825517 221.658208,40.2018233 220.689453,40.1210938 C219.720698,40.0403642 218.590501,40 217.298828,40 C217.056639,40 216.784181,40.010091 216.481445,40.0302734 C216.178709,40.0504558 215.865887,40.0605469 215.542969,40.0605469 C215.38151,40.7063834 215.230144,41.3421193 215.088867,41.9677734 C214.94759,42.5934276 214.755861,43.2493455 214.513672,43.9355469 C213.98893,45.5501383 213.383467,47.3059801 212.697266,49.203125 C212.091794,50.8580812 211.365239,52.7551976 210.517578,54.8945312 C209.669918,57.0338649 208.721359,59.314441 207.671875,61.7363281 C207.429686,63.4720139 207.459959,64.7939408 207.762695,65.7021484 C208.065431,66.6103561 208.4388,67.266274 208.882812,67.6699219 C209.407555,68.1139345 210.053382,68.3561196 210.820312,68.3964844 C211.425784,68.4772139 212.162431,68.265302 213.030273,67.7607422 C213.898116,67.2561824 214.796219,66.5800824 215.724609,65.7324219 C216.652999,64.8847614 217.591467,63.9563853 218.540039,62.9472656 C219.488612,61.938146 220.366532,60.9492236 221.173828,59.9804688 C221.981124,59.0117139 222.687497,58.133793 223.292969,57.3466797 C223.898441,56.5595664 224.322264,56.0045589 224.564453,55.6816406 Z M250.115234,82.2617188 C248.218089,82.2617188 246.452157,81.9589874 244.817383,81.3535156 C243.182609,80.7480438 241.749681,79.9003961 240.518555,78.8105469 C239.287429,77.7206977 238.308597,76.439135 237.582031,74.9658203 C236.855465,73.4925057 236.472005,71.8880295 236.431641,70.1523438 C236.391276,67.8919158 236.744462,65.8737068 237.491211,64.0976562 C238.237959,62.3216057 239.226882,60.7474027 240.458008,59.375 C241.689134,58.0025973 243.091789,56.8421271 244.666016,55.8935547 C246.240242,54.9449822 247.854809,54.1679718 249.509766,53.5625 C248.62174,53.0781226 247.784184,52.492842 246.99707,51.8066406 C246.209957,51.1204393 245.513675,50.3535199 244.908203,49.5058594 C244.302731,48.6581989 243.818361,47.7701869 243.455078,46.8417969 C243.091795,45.9134068 242.910156,44.9850307 242.910156,44.0566406 C242.829427,41.2311057 243.404616,38.6679803 244.635742,36.3671875 C245.866868,34.0663947 247.451162,32.098641 249.388672,30.4638672 C251.326182,28.8290934 253.495756,27.5677128 255.897461,26.6796875 C258.299166,25.7916622 260.650379,25.3476562 262.951172,25.3476562 C264.485034,25.3476562 265.79687,25.5999324 266.886719,26.1044922 C267.976568,26.609052 268.86458,27.2346968 269.550781,27.9814453 C270.236983,28.7281938 270.751626,29.5354774 271.094727,30.4033203 C271.437827,31.2711632 271.629557,32.0683557 271.669922,32.7949219 C271.710287,34.1269598 271.538739,35.4791598 271.155273,36.8515625 C270.771808,38.2239652 270.287438,39.4651637 269.702148,40.5751953 C269.116859,41.6852269 268.460941,42.5934209 267.734375,43.2998047 C267.007809,44.0061884 266.301436,44.359375 265.615234,44.359375 C265.090492,44.359375 264.545576,44.2786466 263.980469,44.1171875 C263.496091,43.9960931 262.930993,43.7942722 262.285156,43.5117188 C261.63932,43.2291653 260.993493,42.8053414 260.347656,42.2402344 C261.397141,41.8365865 262.325517,41.261397 263.132812,40.5146484 C263.940108,39.7678999 264.616208,38.9303432 265.161133,38.0019531 C265.706057,37.0735631 266.109699,36.1149138 266.37207,35.1259766 C266.634441,34.1370393 266.765625,33.1985721 266.765625,32.3105469 C266.72526,31.0188737 266.422529,30.0198603 265.857422,29.3134766 C265.292315,28.6070928 264.384121,28.2539062 263.132812,28.2539062 C261.437492,28.2539062 259.742196,28.6676391 258.046875,29.4951172 C256.351554,30.3225953 254.847988,31.4729744 253.536133,32.9462891 C252.224277,34.4196037 251.194991,36.1754455 250.448242,38.2138672 C249.701494,40.2522888 249.449218,42.4622277 249.691406,44.84375 C249.89323,46.6601653 250.448238,48.1940042 251.356445,49.4453125 C252.264653,50.6966208 253.122392,51.6653612 253.929688,52.3515625 C254.575524,52.2708329 255.180987,52.2001956 255.746094,52.1396484 C256.311201,52.0791013 256.835935,52.0488281 257.320312,52.0488281 C258.006514,52.0488281 258.692705,52.1699207 259.378906,52.4121094 C260.065108,52.6542981 260.408203,52.9973936 260.408203,53.4414062 C260.408203,53.7643245 260.337566,54.1276021 260.196289,54.53125 C260.055012,54.9348979 259.822918,55.3183576 259.5,55.6816406 C259.177082,56.0449237 258.793622,56.347655 258.349609,56.5898438 C257.905597,56.8320325 257.380862,56.953125 256.775391,56.953125 C256.291013,56.953125 255.705733,56.8320325 255.019531,56.5898438 C254.33333,56.347655 253.647139,56.0449237 252.960938,55.6816406 C251.427076,56.0045589 250.034511,56.5797485 248.783203,57.4072266 C247.531895,58.2347047 246.472335,59.213536 245.604492,60.34375 C244.736649,61.473964 244.060549,62.7050715 243.576172,64.0371094 C243.091794,65.3691473 242.869791,66.660801 242.910156,67.9121094 C242.950521,69.0826881 243.13216,70.2633404 243.455078,71.4541016 C243.777996,72.6448627 244.282549,73.7044224 244.96875,74.6328125 C245.654951,75.5612026 246.553054,76.3180309 247.663086,76.9033203 C248.773118,77.4886097 250.115227,77.78125 251.689453,77.78125 C252.860032,77.78125 253.980138,77.5289739 255.049805,77.0244141 C256.119471,76.5198542 257.118485,75.8841184 258.046875,75.1171875 C258.975265,74.3502566 259.822913,73.5026088 260.589844,72.5742188 C261.356775,71.6458287 262.022784,70.7376346 262.587891,69.8496094 C263.152998,68.9615841 263.627277,68.1543005 264.010742,67.4277344 C264.394208,66.7011682 264.666666,66.1764339 264.828125,65.8535156 C264.949219,65.6113269 265.120767,65.4296881 265.342773,65.3085938 C265.56478,65.1874994 265.786783,65.1572263 266.008789,65.2177734 C266.230795,65.2783206 266.402343,65.4296863 266.523438,65.671875 C266.644532,65.9140637 266.644532,66.2773413 266.523438,66.7617188 C266.200519,68.214851 265.595057,69.8395092 264.707031,71.6357422 C263.819006,73.4319751 262.678718,75.1171796 261.286133,76.6914062 C259.893548,78.2656329 258.258798,79.5875598 256.381836,80.6572266 C254.504873,81.7268934 252.416027,82.2617188 250.115234,82.2617188 Z M301.822266,58.9511719 C301.257159,59.7584676 300.530603,60.757481 299.642578,61.9482422 C298.754553,63.1390033 297.836268,64.3297467 296.887695,65.5205078 C295.939123,66.711269 295.010747,67.8011018 294.102539,68.7900391 C293.194331,69.7789763 292.437503,70.4752584 291.832031,70.8789062 C291.428383,71.121095 290.964195,71.3229159 290.439453,71.484375 C289.914711,71.6458341 289.379886,71.7467446 288.834961,71.7871094 C288.290036,71.8274742 287.775393,71.797201 287.291016,71.6962891 C286.806638,71.5953771 286.382814,71.4238293 286.019531,71.1816406 C285.656248,70.8990871 285.353517,70.4954453 285.111328,69.9707031 C284.909504,69.5266905 284.717774,68.9414099 284.536133,68.2148438 C284.354491,67.4882776 284.283854,66.5800836 284.324219,65.4902344 C283.355464,67.1048258 282.285813,68.3460243 281.115234,69.2138672 C279.944656,70.0817101 278.834641,70.7174459 277.785156,71.1210938 C276.574213,71.5651064 275.363287,71.8274736 274.152344,71.9082031 C273.587237,71.9082031 272.981774,71.7164733 272.335938,71.3330078 C271.690101,70.9495424 271.145185,70.3440797 270.701172,69.5166016 C270.257159,68.6891235 269.97461,67.6194727 269.853516,66.3076172 C269.732421,64.9957617 269.893878,63.4316497 270.337891,61.6152344 C270.902998,59.1529825 271.801101,56.9127705 273.032227,54.8945312 C274.263353,52.876292 275.605461,51.1507233 277.058594,49.7177734 C278.511726,48.2848236 279.944654,47.2050818 281.357422,46.4785156 C282.770189,45.7519495 283.940751,45.4290361 284.869141,45.5097656 C285.95899,45.7115896 286.847002,46.034503 287.533203,46.4785156 C288.09831,46.8821635 288.471679,47.4775351 288.65332,48.2646484 C288.834962,49.0517617 288.501957,50.0911394 287.654297,51.3828125 C288.219404,51.2617181 288.693683,51.1809898 289.077148,51.140625 C289.460614,51.1002602 289.753254,51.0800781 289.955078,51.0800781 C290.197267,51.0800781 290.358724,51.1002602 290.439453,51.140625 C290.479818,51.2213546 290.5,51.3929023 290.5,51.6552734 C290.5,51.9176445 290.439454,52.3919237 290.318359,53.078125 C290.197265,53.7643263 290.015626,54.6927025 289.773438,55.8632812 C289.531249,57.03386 289.208335,58.5475168 288.804688,60.4042969 C288.723958,60.7675799 288.653321,61.1005844 288.592773,61.4033203 L287.896484,64.8847656 C287.85612,65.2480487 287.846029,65.6415994 287.866211,66.0654297 C287.886393,66.4892599 287.957031,66.8828107 288.078125,67.2460938 C288.199219,67.6093768 288.390949,67.9020171 288.65332,68.1240234 C288.915691,68.3460298 289.28906,68.4570312 289.773438,68.4570312 C290.177085,68.4570312 290.70182,68.2047551 291.347656,67.7001953 C291.993493,67.1956355 292.679684,66.5498086 293.40625,65.7626953 C294.132816,64.975582 294.889645,64.1077521 295.676758,63.1591797 C296.463871,62.2106072 297.200517,61.2923221 297.886719,60.4042969 C298.57292,59.5162716 299.188474,58.7291701 299.733398,58.0429688 C300.278323,57.3567674 300.671874,56.8522152 300.914062,56.5292969 C301.236981,56.1660138 301.559894,55.9541019 301.882812,55.8935547 C302.205731,55.8330075 302.447916,55.9238269 302.609375,56.1660156 C302.770834,56.4082043 302.801107,56.771482 302.700195,57.2558594 C302.599283,57.7402368 302.306643,58.3053353 301.822266,58.9511719 Z M284.082031,61.6152344 C284.283855,60.8079387 284.52604,59.8593804 284.808594,58.7695312 C285.091147,57.6796821 285.333332,56.6302134 285.535156,55.6210938 C285.73698,54.6119741 285.888346,53.7744174 285.989258,53.1083984 C286.09017,52.4423795 286.059897,52.1295571 285.898438,52.1699219 C285.696614,52.2102867 285.474611,52.2708329 285.232422,52.3515625 C285.030598,52.4322921 284.768231,52.4928383 284.445312,52.5332031 C284.122394,52.5735679 283.799481,52.6341142 283.476562,52.7148438 C283.799481,52.0690072 283.991211,51.5341818 284.051758,51.1103516 C284.112305,50.6865213 284.122396,50.3535168 284.082031,50.1113281 C284.041666,49.8287746 283.960938,49.6067716 283.839844,49.4453125 C283.395831,49.0820294 282.618821,49.3746697 281.508789,50.3232422 C280.398757,51.2718146 279.117195,53.0175654 277.664062,55.5605469 C277.058591,56.6100313 276.574221,57.7301373 276.210938,58.9208984 C275.847654,60.1116596 275.595378,61.2317656 275.454102,62.28125 C275.312825,63.3307344 275.282552,64.2490195 275.363281,65.0361328 C275.444011,65.8232461 275.605468,66.3378894 275.847656,66.5800781 C276.291669,67.0240908 276.796221,67.2360027 277.361328,67.2158203 C277.926435,67.1956379 278.501625,67.0341812 279.086914,66.7314453 C279.672203,66.4287094 280.257484,66.0351587 280.842773,65.5507812 C281.428063,65.0664038 281.952797,64.5618516 282.416992,64.0371094 C282.881187,63.5123672 283.264647,63.027997 283.567383,62.5839844 C283.870119,62.1399717 284.041666,61.8170583 284.082031,61.6152344 Z M320.107422,55.6816406 C320.268881,55.4394519 320.480793,55.2880862 320.743164,55.2275391 C321.005535,55.1669919 321.217447,55.197265 321.378906,55.3183594 C321.540365,55.4394537 321.631185,55.6412746 321.651367,55.9238281 C321.67155,56.2063816 321.560548,56.5898413 321.318359,57.0742188 C320.511064,58.6080806 319.451504,60.263012 318.139648,62.0390625 C316.827793,63.815113 315.44532,65.4801355 313.992188,67.0341797 C312.539055,68.5882239 311.126309,69.8697866 309.753906,70.8789062 C308.381504,71.8880259 307.231124,72.3925781 306.302734,72.3925781 C304.970696,72.3925781 303.860682,72.130211 302.972656,71.6054688 C302.084631,71.0807265 301.388349,70.4348997 300.883789,69.6679688 C300.379229,68.9010378 300.026043,68.0634811 299.824219,67.1552734 C299.622395,66.2470658 299.561849,65.409509 299.642578,64.6425781 C299.682943,63.9967416 299.824218,62.8362714 300.066406,61.1611328 C300.308595,59.4859942 300.631508,57.5485136 301.035156,55.3486328 C301.438804,53.148752 301.892901,50.7874475 302.397461,48.2646484 C302.902021,45.7418494 303.436846,43.3099075 304.001953,40.96875 L301.943359,41.2109375 C301.257158,41.2916671 300.631513,41.3320312 300.066406,41.3320312 C298.774733,41.3320312 297.553717,41.1806656 296.40332,40.8779297 C295.252924,40.5751938 294.395185,40.2825535 293.830078,40 C293.50716,39.8385409 293.365885,39.6064468 293.40625,39.3037109 C293.446615,39.000975 293.567707,38.6982437 293.769531,38.3955078 C293.971355,38.0927719 294.223631,37.8304048 294.526367,37.6083984 C294.829103,37.3863921 295.101561,37.2753906 295.34375,37.2753906 C296.110681,37.3561202 296.938147,37.4267575 297.826172,37.4873047 C298.714197,37.5478519 299.682937,37.5579429 300.732422,37.5175781 C301.499353,37.4772133 302.235999,37.4166671 302.942383,37.3359375 C303.648767,37.2552079 304.345049,37.1542975 305.03125,37.0332031 C305.555992,35.0956934 306.070635,33.4104889 306.575195,31.9775391 C307.079755,30.5445892 307.533852,29.5455757 307.9375,28.9804688 C308.058594,28.7786448 308.331053,28.6070971 308.754883,28.4658203 C309.178713,28.3245436 309.63281,28.2236331 310.117188,28.1630859 C310.601565,28.1025388 311.065753,28.1025388 311.509766,28.1630859 C311.953778,28.2236331 312.276692,28.3749988 312.478516,28.6171875 C312.68034,28.9401058 312.761068,29.7675715 312.720703,31.0996094 C312.680338,32.4316473 312.458335,34.1269428 312.054688,36.1855469 C313.750008,36.1855469 315.253574,36.2763663 316.56543,36.4580078 C317.877285,36.6396493 318.997391,36.8414702 319.925781,37.0634766 C320.854171,37.2854829 321.600909,37.5074859 322.166016,37.7294922 C322.731123,37.9514985 323.154947,38.1028642 323.4375,38.1835938 C323.720053,38.2643233 323.871419,38.4661442 323.891602,38.7890625 C323.911784,39.1119808 323.851238,39.4449853 323.709961,39.7880859 C323.568684,40.1311866 323.33659,40.4238269 323.013672,40.6660156 C322.690754,40.9082043 322.327476,40.9889327 321.923828,40.9082031 C321.52018,40.8678383 321.066083,40.78711 320.561523,40.6660156 C320.056964,40.5449213 319.451501,40.4440108 318.745117,40.3632812 C318.038733,40.2825517 317.201177,40.2018233 316.232422,40.1210938 C315.263667,40.0403642 314.13347,40 312.841797,40 C312.599608,40 312.32715,40.010091 312.024414,40.0302734 C311.721678,40.0504558 311.408856,40.0605469 311.085938,40.0605469 C310.924478,40.7063834 310.773113,41.3421193 310.631836,41.9677734 C310.490559,42.5934276 310.298829,43.2493455 310.056641,43.9355469 C309.531898,45.5501383 308.926436,47.3059801 308.240234,49.203125 C307.634763,50.8580812 306.908207,52.7551976 306.060547,54.8945312 C305.212886,57.0338649 304.264328,59.314441 303.214844,61.7363281 C302.972655,63.4720139 303.002928,64.7939408 303.305664,65.7021484 C303.6084,66.6103561 303.981769,67.266274 304.425781,67.6699219 C304.950523,68.1139345 305.59635,68.3561196 306.363281,68.3964844 C306.968753,68.4772139 307.705399,68.265302 308.573242,67.7607422 C309.441085,67.2561824 310.339188,66.5800824 311.267578,65.7324219 C312.195968,64.8847614 313.134435,63.9563853 314.083008,62.9472656 C315.03158,61.938146 315.909501,60.9492236 316.716797,59.9804688 C317.524093,59.0117139 318.230466,58.133793 318.835938,57.3466797 C319.441409,56.5595664 319.865233,56.0045589 320.107422,55.6816406 Z M325.011719,68.9414062 C325.253907,69.1028654 325.56673,69.1835938 325.950195,69.1835938 C326.333661,69.1835938 326.71712,69.1028654 327.100586,68.9414062 C327.484051,68.7799471 327.847329,68.5579441 328.19043,68.2753906 C328.53353,67.9928371 328.785806,67.6295595 328.947266,67.1855469 C329.108725,66.7415342 329.108725,66.1057984 328.947266,65.2783203 C328.785806,64.4508422 328.53353,63.5628303 328.19043,62.6142578 C327.847329,61.6656854 327.47396,60.7070361 327.070312,59.7382812 C326.666665,58.7695264 326.323569,57.8815145 326.041016,57.0742188 C325.798827,56.468747 325.597006,55.9036485 325.435547,55.3789062 C325.274088,54.9348936 325.122722,54.5009787 324.981445,54.0771484 C324.840169,53.6533182 324.729167,53.3606779 324.648438,53.1992188 C324.446614,53.522137 324.093427,54.0468714 323.588867,54.7734375 C323.084307,55.5000036 322.539391,56.256832 321.954102,57.0439453 C321.368812,57.8310586 320.813805,58.5576139 320.289062,59.2236328 C319.76432,59.8896518 319.401043,60.3437488 319.199219,60.5859375 C318.8763,60.9492206 318.563478,61.1611325 318.260742,61.2216797 C317.958006,61.2822269 317.70573,61.2216806 317.503906,61.0400391 C317.302082,60.8583975 317.191081,60.5960304 317.170898,60.2529297 C317.150716,59.909829 317.302082,59.4960962 317.625,59.0117188 C317.867189,58.6888005 318.230466,58.1741572 318.714844,57.4677734 C319.199221,56.7613897 319.683591,56.0348345 320.167969,55.2880859 C320.652346,54.5413374 321.096352,53.8753284 321.5,53.2900391 C321.903648,52.7047497 322.125651,52.3515631 322.166016,52.2304688 C322.246745,51.9075505 322.135744,51.4837266 321.833008,50.9589844 C321.530272,50.4342422 321.479817,49.8287795 321.681641,49.1425781 C321.8431,48.5774711 322.206377,47.9215532 322.771484,47.1748047 C323.336591,46.4280562 324.0026,45.7519562 324.769531,45.1464844 C325.536462,44.5410126 326.323564,44.0869156 327.130859,43.7841797 C327.938155,43.4814438 328.66471,43.4915348 329.310547,43.8144531 C329.835289,44.1373714 330.259113,44.490558 330.582031,44.8740234 C330.90495,45.2574889 331.026042,45.6510396 330.945312,46.0546875 C330.864583,46.2565114 330.74349,46.5188786 330.582031,46.8417969 C330.420572,47.1647152 330.178387,47.5582659 329.855469,48.0224609 C329.53255,48.486656 329.068362,49.0820276 328.462891,49.8085938 C328.583985,50.7369838 328.755533,51.5846316 328.977539,52.3515625 C329.199545,53.1184934 329.411457,53.7845024 329.613281,54.3496094 C329.85547,55.0358107 330.117837,55.6614555 330.400391,56.2265625 C330.763674,56.9531286 331.147133,57.699866 331.550781,58.4667969 C331.954429,59.2337278 332.317707,59.9905562 332.640625,60.7373047 C332.963543,61.4840532 333.22591,62.1803353 333.427734,62.8261719 C333.629558,63.4720084 333.690105,64.0169249 333.609375,64.4609375 C333.488281,65.1471388 333.135094,65.9746045 332.549805,66.9433594 C331.964515,67.9121142 331.23796,68.8505814 330.370117,69.7587891 C329.502274,70.6669967 328.513352,71.4440072 327.40332,72.0898438 C326.293289,72.7356803 325.132819,73.0585938 323.921875,73.0585938 C323.074215,73.0585938 322.25684,72.7962266 321.469727,72.2714844 C320.682613,71.7467422 320.016604,71.1311884 319.47168,70.4248047 C318.926755,69.7184209 318.523113,69.0221388 318.260742,68.3359375 C317.998371,67.6497362 317.968098,67.1250018 318.169922,66.7617188 C318.412111,66.2773413 318.634114,65.8938816 318.835938,65.6113281 C319.037761,65.3287746 319.340493,65.0058612 319.744141,64.6425781 C319.9056,64.5214838 320.107421,64.3802091 320.349609,64.21875 C320.551433,64.0976556 320.833983,63.9765631 321.197266,63.8554688 L322.46875,63.4316406 C322.872398,64.682949 323.235675,65.6617803 323.558594,66.3681641 C323.881512,67.0745478 324.143879,67.6295553 324.345703,68.0332031 C324.587892,68.4772158 324.809895,68.7799471 325.011719,68.9414062 Z" id="Great-Eats" fill="#EB461B"></path>
        <path d="M25.4,59.4549311 L15.9,59.4549311 L15.9,64.7961321 L16.716753,64.7961321 L16.716753,91.6521739 L24.6445155,91.6521739 L24.6445155,64.7939655 L25.4,64.7939655 L25.4,59.4549311 Z M29.2,39.2525543 C29.2,39.2258926 29.1972117,39.2047854 29.1972117,39.1781236 L29.2,39.1781236 L29.2,15.51472 C29.2,14.6787634 28.519661,14.0005555 27.680948,14.0005555 C26.8427927,14.0005555 26.161896,14.678208 26.161896,15.51472 L26.161896,27.9801936 L26.161896,33.3808619 L26.161896,33.9829729 C26.0224823,34.6734008 25.4085042,35.1966374 24.6718421,35.1966374 C23.8331291,35.1966374 23.1527901,34.5189849 23.1527901,33.6841392 L23.1527901,25.4595484 L23.1527901,15.51472 C23.1511171,14.678208 22.4635286,14 21.6158932,14 C20.7682577,14 20.0812268,14.6776525 20.0812268,15.5141646 L20.0812268,25.4456621 L20.0812268,33.6808065 C20.0812268,34.5156522 19.4008878,35.1938601 18.5616172,35.1938601 C17.7240195,35.1938601 17.0431229,34.5173185 17.0431229,33.6808065 L17.0431229,15.5236073 L17.0369887,15.5236073 C17.038104,15.5025 17.0420076,15.4841701 17.0420076,15.4630629 C17.0420076,14.6543235 16.3599956,14 15.5201673,14 C14.6808967,14 14,14.6543235 14,15.461952 C14,15.4830592 14.0022306,15.5013891 14.0033459,15.5224963 L14,15.5224963 L14,39.1764573 L14.0022306,39.1764573 C14.0022306,39.2042299 14,39.2258926 14,39.2525543 C14,45.1720157 15.9746561,50.2327469 18.7662766,52.3168061 L18.7662766,59.4549311 L24.4097443,59.4549311 L24.4097443,52.3329142 C27.2153062,50.261075 29.2,45.1897902 29.2,39.2525543 Z M50.8319109,69.2524768 L50.8319109,37.9644544 L50.8319109,14 C45.6373499,15.5192829 41.8433965,20.3088864 41.8433965,25.9844187 C41.8433965,25.9959243 41.8444959,26.0085256 41.8450456,26.0194833 L41.8433965,26.0194833 L41.8433965,69.2530246 L40.6,69.2530246 L40.6,75.2271538 L41.8433965,75.2271538 L41.8433965,91.6521739 L50.8319109,91.6521739 L50.8319109,75.2249623 L52,75.2249623 L52,69.2524768 L50.8319109,69.2524768 Z" id="Shape-Copy-2" fill="#EB461B" fill-rule="nonzero"></path>
    </g>
</svg>