<?xml version="1.0" encoding="UTF-8" standalone="no"?>
<svg width="108px" height="182px" viewBox="0 0 108 182" version="1.1" xmlns="http://www.w3.org/2000/svg" xmlns:xlink="http://www.w3.org/1999/xlink">
    <!-- Generator: Sketch 49.3 (51167) - http://www.bohemiancoding.com/sketch -->
    <title>Artboard 2</title>
    <desc>Created with Sketch.</desc>
    <defs></defs>
    <g id="Artboard-2" stroke="none" stroke-width="1" fill="none" fill-rule="evenodd">
        <path d="M40.4,103.121951 L23.4,103.121951 L23.4,112.889231 L24.861558,112.889231 L24.861558,162 L39.0480804,162 L39.0480804,112.885269 L40.4,112.885269 L40.4,103.121951 Z M47.2,66.1785232 C47.2,66.1297678 47.1950105,66.0911697 47.1950105,66.0424142 L47.2,66.0424142 L47.2,22.7699191 C47.2,21.2412325 45.9825513,20.0010157 44.4816964,20.0010157 C42.9818395,20.0010157 41.7633929,21.2402168 41.7633929,22.7699191 L41.7633929,45.5651244 L41.7633929,55.4411506 L41.7633929,56.5422113 C41.5139157,57.8047743 40.4152181,58.7616001 39.0969806,58.7616001 C37.5961258,58.7616001 36.378677,57.522399 36.378677,55.9957439 L36.378677,40.9557027 L36.378677,22.7699191 C36.3756833,21.2402168 35.1452618,20 33.6284404,20 C32.111619,20 30.8821954,21.2392011 30.8821954,22.7689034 L30.8821954,40.9303092 L30.8821954,55.9896495 C30.8821954,57.5163046 29.6647467,58.7565214 28.1628939,58.7565214 C26.6640349,58.7565214 25.4455883,57.5193518 25.4455883,55.9896495 L25.4455883,22.7861709 L25.4346113,22.7861709 C25.4366071,22.7475729 25.4435925,22.7140535 25.4435925,22.6754554 C25.4435925,21.1965401 24.22315,20 22.7202994,20 C21.2184466,20 20,21.1965401 20,22.673424 C20,22.712022 20.0039916,22.7455414 20.0059875,22.7841395 L20,22.7841395 L20,66.039367 L20.0039916,66.039367 C20.0039916,66.090154 20,66.1297678 20,66.1785232 C20,77.0032493 23.533595,86.2576435 28.5291265,90.0686947 L28.5291265,103.121951 L38.6279635,103.121951 L38.6279635,90.0981511 C43.6484426,86.3094462 47.2,77.0357529 47.2,66.1785232 Z M85.9097353,121.038404 L85.9097353,63.8230168 L85.9097353,20 C76.6142051,22.778263 69.8250253,31.536855 69.8250253,41.915516 C69.8250253,41.9365559 69.8269926,41.9595995 69.8279763,41.9796375 L69.8250253,41.9796375 L69.8250253,121.039406 L67.6,121.039406 L67.6,131.964101 L69.8250253,131.964101 L69.8250253,162 L85.9097353,162 L85.9097353,131.960093 L88,131.960093 L88,121.038404 L85.9097353,121.038404 Z" id="Shape-Copy-2" fill="#EB461B" fill-rule="nonzero"></path>
    </g>
</svg>